<?xml version="1.0" encoding="UTF-8" standalone="no"?>
<!-- Generator: Adobe Illustrator 13.0.2, SVG Export Plug-In . SVG Version: 6.00 Build 14948)  -->

<svg
   xmlns:dc="http://purl.org/dc/elements/1.1/"
   xmlns:cc="http://creativecommons.org/ns#"
   xmlns:rdf="http://www.w3.org/1999/02/22-rdf-syntax-ns#"
   xmlns:svg="http://www.w3.org/2000/svg"
   xmlns="http://www.w3.org/2000/svg"
   xmlns:sodipodi="http://sodipodi.sourceforge.net/DTD/sodipodi-0.dtd"
   xmlns:inkscape="http://www.inkscape.org/namespaces/inkscape"
   version="1.1"
   xml:space="preserve"
   height="330.95px"
   width="546.21px"
   enable-background="new 0 0 546.209 330.947"
   y="0px"
   x="0px"
   viewBox="0 0 546.209 330.947"
   id="svg2"
   inkscape:version="0.48.4 r9939"
   sodipodi:docname="tracktunes-logo-text_sml-w.svg"><sodipodi:namedview
     pagecolor="#ffffff"
     bordercolor="#666666"
     borderopacity="1"
     objecttolerance="10"
     gridtolerance="10"
     guidetolerance="10"
     inkscape:pageopacity="0"
     inkscape:pageshadow="2"
     inkscape:window-width="1273"
     inkscape:window-height="800"
     id="namedview57"
     showgrid="false"
     inkscape:zoom="1.2888815"
     inkscape:cx="529.27206"
     inkscape:cy="-21.249153"
     inkscape:window-x="0"
     inkscape:window-y="0"
     inkscape:window-maximized="0"
     inkscape:current-layer="svg2" /><metadata
     id="metadata4"><rdf:RDF><cc:Work
         rdf:about=""><dc:format>image/svg+xml</dc:format><dc:type
           rdf:resource="http://purl.org/dc/dcmitype/StillImage" /><dc:title /></cc:Work></rdf:RDF></metadata><defs
     id="defs6"><linearGradient
       id="linearGradient3452"
       x1="1409.3"
       gradientUnits="userSpaceOnUse"
       x2="1460.5"
       gradientTransform="matrix(6.5784837,0,0,6.5784837,-9161.8529,-2938.3757)"
       y1="466.14"
       y2="466.14"><stop
         stop-color="#b00"
         offset="0"
         id="stop9" /><stop
         stop-color="#c00900"
         offset="0.0379"
         id="stop11" /><stop
         stop-color="#cf2100"
         offset="0.0998"
         id="stop13" /><stop
         stop-color="#e64900"
         offset="0.1774"
         id="stop15" /><stop
         stop-color="#ff7200"
         offset="0.2473"
         id="stop17" /><stop
         stop-color="#ffa000"
         offset="0.3198"
         id="stop19" /><stop
         stop-color="#ffd000"
         offset="0.407"
         id="stop21" /><stop
         stop-color="#ffef00"
         offset="0.4735"
         id="stop23" /><stop
         stop-color="#fffa00"
         offset="0.511"
         id="stop25" /><stop
         stop-color="#ff7200"
         offset="0.7582"
         id="stop27" /><stop
         stop-color="#f15a00"
         offset="0.7988"
         id="stop29" /><stop
         stop-color="#d42a00"
         offset="0.8906"
         id="stop31" /><stop
         stop-color="#c20b00"
         offset="0.9606"
         id="stop33" /><stop
         stop-color="#b00"
         offset="1"
         id="stop35" /></linearGradient></defs><path
     d="M23.838,267.08h-23.839v-2.146h49.824v2.146h-23.84v63.122h-2.145v-63.122z"
     fill="#FFF"
     id="path37" /><path
     d="m60.736,264.93h25.051c11.384,0,19.316,7.745,19.316,18.849,0,11.056-7.887,18.803-19.316,18.803h-9.469s2.052,0.743,4.199,2.751l22.767,21.32c0.933,0.887,1.585,1.399,2.938,1.399h2.614c0.932,0,1.539-0.56,1.912-1.492l25.846-61.63h1.961l27.384,65.268h-2.286l-6.251-14.835c-0.84-2.005-1.681-3.313-5.598-3.313h-28.458c-3.92,0-4.761,1.309-5.598,3.313l-5.039,11.943c-0.794,1.912-2.054,2.892-3.873,2.892h-2.614c-1.818,0-3.079-0.653-4.524-2.053l-22.619-21.22c-3.406-3.173-5.786-4.338-10.542-4.338h-5.649v27.616h-2.145v-65.267zm25.051,35.504c10.311,0,17.17-6.718,17.17-16.655s-6.905-16.703-17.17-16.703h-22.91v33.358h22.907zm38.443,9.469h26.686c2.006,0,3.498,0.188,4.479,0.653l-17.823-42.454-17.819,42.454c0.976-0.464,2.471-0.653,4.477-0.653z"
     fill="#FFF"
     id="path39" /><path
     d="m224.1,321.06c-6.064,6.11-14.462,9.889-23.7,9.889-18.426,0-33.358-14.928-33.358-33.354,0-18.431,14.932-33.405,33.358-33.405,9.238,0,17.636,3.778,23.7,9.891l-1.493,1.492c-5.69-5.692-13.529-9.237-22.207-9.237-17.307,0-31.211,13.949-31.211,31.26,0,17.307,13.904,31.212,31.211,31.212,8.678,0,16.517-3.55,22.207-9.241l1.493,1.493z"
     fill="#FFF"
     id="path41" /><path
     d="m235.94,264.93h2.146v46.934c0.514-2.053,2.427-4.992,3.687-6.391l32.75-36.624c2.238-2.52,4.665-3.919,8.398-3.919h53.324v2.146h-23.841v63.122h-2.145v-63.12h-27.387c-3.172,0-4.897,1.073-6.811,3.221l-19.828,22.111,28.972,37.79h-2.66l-27.757-36.157-11.338,12.786c-3.032,3.452-5.365,7.649-5.365,12.733v10.638h-2.146v-65.268z"
     fill="#FFF"
     id="path43" /><path
     d="m346.69,264.93h2.147v42.361c0,11.85,9.658,21.51,21.507,21.51,11.804,0,21.506-9.66,21.506-21.51v-42.361h2.146v42.361c0,13.062-10.589,23.652-23.652,23.652s-23.654-10.59-23.654-23.652v-42.361z"
     fill="#FFF"
     id="path45" /><path
     d="m405.84,264.93h2.194l43.014,61.489v-61.489h40.215v2.146h-38.07v29.439h29.018v2.145h-29.02v29.393h38.068v2.146h-40.215l-43.062-61.534v61.534h-2.146v-65.269z"
     fill="#FFF"
     id="path47" /><path
     d="m501.28,318.31c4.059,6.904,12.736,10.499,21.508,10.499,8.678,0,21.274-3.55,21.274-14.699,0-10.777-11.478-14.369-21.274-17.401-9.564-2.939-21.087-6.343-21.087-17.494,0-10.357,10.963-15.022,21.087-15.022,8.119,0,15.582,3.171,20.714,8.21l-1.587,1.494c-4.805-4.76-11.895-7.559-19.127-7.559-9.61,0-18.94,4.387-18.94,12.925,0,9.001,9.097,12.128,18.94,15.208,11.149,3.499,23.421,7.37,23.421,19.547,0,12.597-13.344,16.935-23.421,16.935-9.191,0-18.754-3.638-23.42-11.662l1.912-0.981z"
     fill="#FFF"
     id="path49" /><path
     d="m392.57,130.14c0-3.0064,0.26315-6.0456,0.82231-9.1571,2.4669-24.682,22.63-44.997,35.807-62.62,10.506-13.164,17.038-24.775,17.051-33.958,0-2.9932-0.7039-5.7364-2.2038-8.1443-4.0589-7.1178-14.94-11.282-29.583-11.289-5.4207,0-11.368,0.57233-17.676,1.7959-22.341,4.3221-49.483,16.972-67.778,39.859-2.2827,2.6051-4.4536,5.3417-6.493,8.2361-1.8946,2.4406-3.6971,4.9931-5.4075,7.6708-13.038,19.019-21.163,36.748-28.781,51.615-3.7366,7.5851-7.348,14.427-10.828,20.499-3.3748-5.9075-6.8677-12.545-10.473-19.874-7.6242-14.861-15.749-32.596-28.781-51.608-1.7104-2.6709-3.5195-5.2233-5.4141-7.6639-2.0459-2.8945-4.2168-5.6443-6.493-8.243-18.288-22.886-45.431-35.531-67.771-39.853-6.3153-1.2236-12.256-1.7959-17.683-1.7959-14.644,0.00658-25.518,4.1708-29.577,11.289-1.4999,2.4077-2.2104,5.151-2.2038,8.1374,0,9.1838,6.5324,20.795,17.051,33.952,13.164,17.63,33.34,37.945,35.8,62.62,0.55916,3.105,0.81573,6.164,0.81573,9.164,0.007,20.735-12.335,38.859-21.873,55.305-9.6704,15.644-16.742,29.695-16.755,40.918,0,2.184,0.26314,4.2497,0.83546,6.1838,2.8024,11.105,15.414,18.012,33.623,18.012,1.4275,0,2.9011-0.0394,4.401-0.13157,19.986-1.1249,46.108-10.328,64.719-29.742,2.2498-2.1051,4.4142-4.355,6.4666-6.7429,1.3881-1.4539,2.7498-2.9603,4.0589-4.5392,13.756-15.683,22.893-30.09,30.794-41.945,3.1379-4.8352,6.0654-9.2359,8.835-13.216,2.638,3.8221,5.4141,7.9997,8.3944,12.585,7.9072,11.854,17.038,26.268,30.794,41.951,1.3091,1.5723,2.6643,3.0853,4.0589,4.5326,2.0591,2.388,4.2168,4.6444,6.4667,6.7495,18.61,19.413,44.741,28.623,64.719,29.742,1.5065,0.0855,2.9801,0.13156,4.401,0.13156,18.209,0,30.813-6.9074,33.623-18.012,0.57233-1.9341,0.83547-4.0129,0.83547-6.1838-0.007-11.216-7.0719-25.274-16.749-40.918-9.5518-16.453-21.9-34.57-21.893-55.312zm-109.59,13.282c1.2499-2.3814,2.4801-4.6707,3.7037-6.8745,8.9008-16.749,17.21-28.301,24.426-34.228,3.9208-3.2761,7.5125-4.8483,10.401-4.8352,2.3748,0.007,4.2958,1.0262,5.697,3.1116,3.309,4.651,3.7958,14.743,3.9537,30.438-0.0921,15.703-0.51312,26.722-3.8945,33.116-2.2432,4.447-5.8548,6.7035-10.414,6.7101-1.9736,0.007-4.1181-0.42103-6.4206-1.3091-7.605-2.888-16.683-10.776-25.669-23.584-0.59207-0.82231-1.1907-1.6709-1.7828-2.5459zm-0.921,1.7301c1.9209,2.9143,3.8221,5.6312,5.7364,8.1313,9.2688,12.426,18.788,19.663,26.774,21.788,1.6775,0.44734,3.2892,0.66443,4.8154,0.66443,5.7693,0.0132,10.348-3.2366,12.749-9.2359,3.2564-7.631,3.2103-19.597,3.3814-36.234-0.20394-16.637-0.15131-27.656-3.4537-33.642-1.6512-3.2037-4.3747-4.9141-7.6838-4.9075-2.8353,0-6.0719,1.2104-9.5457,3.6116-7.5721,5.1838-16.289,16.051-25.189,32.425-1.1249,1.9801-2.2498,4.0589-3.3814,6.1904,2.6248-5.1575,5.1575-9.9136,7.6968-14.236,8.9666-15.841,18.111-25.834,25.696-30.018,2.8419-1.5854,5.4601-2.3419,7.7366-2.3419,3.7695,0.0066,6.6574,2.0393,8.3218,6.118,2.9274,6.5982,2.4406,18.538,2.6182,36.043-0.23684,17.512,0.2434,30.367-2.6511,38.668-2.3485,7.2692-7.1706,11.045-13.63,11.065-0.8881,0-1.7959-0.0658-2.7367-0.21709-7.8284-1.1841-17.67-7.5255-27.162-19.374-3.4011-4.1313-6.7561-8.9598-10.151-14.394,0-0.0263,0.0658-0.0658,0.0658-0.10525zm-3.0327,5.7956c0.0658,0.0724,0.0921,0.14473,0.13814,0.21708-0.0658-0.0658-0.0921-0.13156-0.13814-0.20392v-0.0132zm-2.7235,0.63812c-0.0658,0.0724-0.0921,0.13814-0.13157,0.2105,0.0658-0.0724,0.0921-0.14472,0.13157-0.2105zm-3.9471-7.5255c-0.59207,0.86835-1.1907,1.717-1.7894,2.5459-8.9865,12.802-18.065,20.689-25.669,23.577-2.2893,0.88152-4.4405,1.3091-6.414,1.3091-4.5589-0.007-8.1642-2.2564-10.414-6.7035-3.3879-6.4009-3.809-17.42-3.901-33.123,0.16446-15.697,0.65126-25.794,3.9602-30.438,1.4012-2.0854,3.309-3.1051,5.6904-3.1051,2.888-0.007,6.4732,1.5591,10.401,4.8352,7.2165,5.9272,15.532,17.479,24.432,34.221,1.217,2.1972,2.4406,4.4931,3.7037,6.8814zm-6.6706-15.677c-8.9008-16.374-17.617-27.235-25.189-32.419-3.4669-2.4143-6.7166-3.6116-9.5457-3.6116-3.309-0.0066-6.0325,1.6907-7.6838,4.9076-3.3024,5.9864-3.2564,16.999-3.4471,33.642,0.17104,16.631,0.11841,28.61,3.3748,36.228,2.4011,6.0062,6.98,9.2558,12.755,9.2359,1.5262,0,3.1379-0.21052,4.8089-0.66443,7.986-2.1248,17.512-9.3613,26.781-21.782,1.9143-2.5064,3.8155-5.2299,5.7298-8.1443,0,0.0329,0,0.0724,0.0658,0.11183-3.4011,5.4338-6.7495,10.262-10.144,14.394-9.4929,11.848-19.334,18.183-27.162,19.374-0.94072,0.13815-1.8551,0.21051-2.7366,0.21051-6.4666-0.0132-11.275-3.7892-13.637-11.065-2.8814-8.2957-2.4077-21.15-2.6446-38.662,0.17762-17.512-0.30918-29.452,2.6182-36.043,1.6644-4.0787,4.5457-6.1114,8.3218-6.1246,2.2696,0,4.8878,0.75653,7.7297,2.3419,7.5851,4.1839,16.722,14.177,25.696,30.018,2.5393,4.3155,5.072,9.0715,7.6968,14.229-1.1315-2.1183-2.2564-4.1971-3.3748-6.1772zm-91.907,117.14c-2.5327,0.26972-4.9733,0.40128-7.3151,0.40128-15.703,0-26.748-5.8285-30.09-15.104-0.98677-2.4669-1.4407-5.1773-1.4407-8.1176-0.007-9.9075,5.2233-22.466,12.848-36.517,8.0984-16.097,19.301-34.195,19.315-55.206,0-2.9866-0.22367-6.0325-0.71706-9.1043-2.1248-24.952-20.222-45.148-31.274-62.265-8.1703-11.723-12.993-22.005-12.979-29.958,0-3.5392,0.94073-6.6114,2.9537-9.2167,3.98-5.5522,13.091-8.9207,25.17-8.9138,6.0917,0,12.927,0.84862,20.229,2.684,16.275,4.0852,34.879,13.164,50.023,27.985-12.236-11.065-26.104-18.413-38.773-22.393-8.23-2.5985-15.966-3.8024-22.736-3.8024-10.085,0.0069-18.025,2.6511-22.235,7.3809-2.8156,2.9735-4.1247,6.7627-4.1247,11.164,0,7.3419,3.5853,16.42,9.7889,26.748,9.2229,16.696,25.13,36.55,26.86,61.074,0.41443,2.9932,0.61837,5.9404,0.61837,8.835,0.007,20.663-9.9205,38.464-16.749,54.227-5.8285,12.453-9.6834,23.584-9.6902,32.702,0,3.9405,0.73021,7.5125,2.3288,10.624,3.9866,8.3746,14.282,13.347,28.031,13.347,3.184,0,6.5588-0.26315,10.085-0.82231,12.335-1.9143,26.61-7.4536,39.392-17.045-15.525,12.907-34.228,19.703-49.529,21.294zm19.301-10.249c-4.3747,0.92756-8.526,1.3683-12.374,1.3683-11.723,0-20.637-4.0787-24.709-10.894-2.1972-3.4537-3.1906-7.6379-3.1906-12.473,0-7.8613,2.6446-17.426,6.9334-28.13,5.5786-15.302,14.473-32.971,14.473-53.726,0-2.855-0.15788-5.7693-0.52628-8.7035-1.4341-24.577-15.551-44.233-22.999-60.305-4.48-8.7693-6.9472-16.466-6.9472-22.67,0-5.0457,1.6052-9.0783,5.072-12.065,3.5261-3.5984,9.9335-5.5983,17.985-5.5917,18.268-0.0069,44.819,10.236,64.969,34.116-18.597-20.446-41.386-29.465-57.377-29.472-6.5193,0-11.947,1.4999-15.479,4.3878-4.4208,3.1314-6.493,7.9339-6.4798,13.953,0,5.4865,1.6907,12.013,4.822,19.354,5.9272,15.571,18.176,34.754,19.308,58.832,0.30919,2.8616,0.44075,5.6575,0.44075,8.4074,0.007,20.354-7.7694,37.629-12.262,52.529-3.0064,8.9927-4.7957,17.091-4.7957,24.011,0,6.0127,1.3486,11.144,4.4471,15.137,4.3615,5.947,12.512,9.3284,22.716,9.3284,4.5457,0,9.5189-0.671,14.756-2.092,10.789-2.9143,22.742-9.0913,33.399-18.775-12.96,12.973-28.649,20.624-42.181,23.472zm-0.32235-8.1642c-8.5191,0-15.433-2.5919-19.249-7.3282-3.8089-4.1181-5.4996-9.828-5.4996-16.867,0-5.6641,1.092-12.177,3.0524-19.367,3.4406-14.341,10.282-31.366,10.282-51.628,0-2.7037-0.11841-5.4601-0.38813-8.2491-0.89467-23.946-11.585-42.813-16.051-57.634-2.0196-5.8417-3.059-11.045-3.059-15.485,0.007-6.7232,2.3617-11.651,7.3549-14.551,3.0458-1.9867,7.2692-3.0393,12.269-3.0393,16.716-0.01317,41.945,11.782,60.562,38.583-17.407-23.235-39.096-33.8-53.983-33.813-3.8879,0-7.3151,0.72363-10.078,2.138-6.0719,2.7893-9.0125,8.5123-8.9926,16.335,0,3.605,0.6118,7.677,1.8091,12.13,3.2498,14.282,12.361,32.55,13.025,55.93,0.23025,2.6972,0.32234,5.3483,0.32234,7.947,0.007,19.788-5.8877,36.326-8.3944,50.207-1.171,5.4864-1.8025,10.552-1.8025,15.104,0,8.3876,2.1446,15.104,7.0458,19.545,3.9076,3.9471,10.019,6.0193,17.275,6.0193,13.683-0.007,31.498-7.348,46.654-23.525-16.361,19.13-36.813,27.564-52.154,27.551zm10.683-9.6375c-5.8483,0-10.828-1.5394-14.354-4.4536-5.618-4.2497-8.1902-11.407-8.1902-20.933,0-3.2761,0.30919-6.8285,0.89468-10.644,1.638-13.203,6.6969-29.373,6.6969-48.931,0-2.5327-0.0921-5.1181-0.28286-7.7427-0.48682-23.077-8.256-40.925-10.335-54.351-0.6118-3.0919-0.90783-5.9338-0.90783-8.526,0-8.5918,3.2629-14.268,9.7951-16.565,2.1512-0.83547,4.6444-1.2762,7.4008-1.2762,15.381-0.01317,38.912,13.473,56.378,43.016-16.492-25.899-36.682-38.148-50.733-38.168-1.9341,0-3.7497,0.23682-5.4207,0.69074-7.6242,1.8354-11.604,8.2957-11.585,18.005,0,1.6907,0.11842,3.4866,0.34866,5.3549,1.0986,12.841,7.5913,30.005,7.901,52.43,0.1513,2.5524,0.23025,5.0457,0.23025,7.4864,0,18.992-4.23,34.596-5.1049,47.279-0.22368,2.2959-0.34208,4.5062-0.34208,6.5982-0.007,10.881,3.1248,18.999,9.9534,23.255,3.3419,2.2432,7.6242,3.3879,12.459,3.3879,13.197-0.007,30.656-8.4862,45.392-26.709-15.67,21.222-35.616,30.8-50.194,30.794zm9.3154-9.6772c-3.7103,0-7.039-0.76311-9.828-2.263-7.394-3.6971-11.019-11.999-11.019-23.913,0-0.88809,0-1.7959,0.0658-2.7366,0.17104-11.92,3.6576-27.018,3.6576-45.609,0-2.3814-0.0658-4.8089-0.1842-7.2953-0.1842-21.965-5.5259-38.596-5.7364-50.49-0.0658-0.76968-0.0658-1.5262-0.0658-2.2564,0-10.44,4.3089-16.591,12.183-17.676,1.0262-0.17762,2.0854-0.26314,3.184-0.26314,15.302-0.04606,38.287,17.031,55.516,52.805-6.2-12.087-12.71-21.981-19.46-29.447-11.23-12.684-23.15-18.499-31.78-18.512-0.23683,0-0.45392,0-0.67758,0.0069-8.8741,0.28945-14.058,6.9403-14.144,18.104-0.0658,0.69074-0.0658,1.4012-0.0658,2.1183,0.007,11.118,3.8024,26.321,3.855,46.286,0.11185,2.4275,0.15131,4.7957,0.15131,7.1116,0,16.571-2.3617,30.169-2.3617,41.096,0,0.8881,0.007,1.763,0.0658,2.6116,0.13814,12.723,4.4471,21.538,12.874,24.801,2.4077,0.99334,5.0852,1.4999,7.9798,1.4999,12.815-0.0132,29.728-9.7622,44.214-29.998-15.269,23.229-34.511,34.064-48.405,34.037zm8.1176-9.5717c-1.9867,0-3.8682-0.26973-5.6378-0.79601-8.0717-2.2564-12.782-9.7293-13.585-21.518-0.1842-2.0064-0.26972-4.1247-0.26972-6.3746,0-9.4929,1.3815-21.183,1.3881-35.182,0-2.2959,0-4.6576-0.13157-7.052v-0.19735c0-17.387-2.388-30.899-2.3748-40.826,0-1.8157,0.079-3.5195,0.26314-5.0983,0.81572-9.6245,5.5259-14.716,13.078-14.743,0.41445,0,0.83547,0.01317,1.2696,0.05261,8.23,0.59206,19.683,7.1575,30.386,20.729,5.5983,6.9204,11.006,15.703,16.334,26.162-3.7432-7.0129-7.4796-13.183-11.322-18.44-10.171-14.288-21.071-21.886-29.485-23.459-1.1183-0.20393-2.1841-0.30261-3.1972-0.30261-6.8285-0.01972-11.532,4.651-12.755,12.92-0.48022,2.5261-0.65126,5.3878-0.65126,8.5979,0,8.7494,1.2828,20.084,1.2828,34.234,0,0.35524-0.007,0.69074-0.007,1.0657,0.079,2.4472,0.10526,4.822,0.10526,7.1308,0,11.032-0.67758,20.512-0.67758,28.505,0,3.9339,0.16446,7.5125,0.65126,10.73,1.3683,11.111,6.7364,18.111,15.189,19.545,1.2236,0.24341,2.4932,0.36182,3.7892,0.36182,12.651-0.0263,28.781-11.209,43.306-33.399-15.236,25.143-33.55,37.379-46.95,37.353zm7.0458-9.3743c-0.57233,0-1.1447-0.0263-1.7104-0.0855-8.0258-0.52628-13.466-6.1575-15.348-16.236-0.93414-4.4142-1.1644-9.6772-1.1644-15.795,0-5.9733,0.21708-12.749,0.21708-20.373,0-2.4801,0-5.0391-0.0855-7.677v-2.1972c0-10.578-0.53286-19.4-0.53286-26.531,0-5.0128,0.26314-9.1838,1.1512-12.545,1.5328-6.6245,5.3878-10.006,10.835-10.019,1.4604,0,3.0393,0.24998,4.7168,0.74995,7.9469,2.4011,18.157,10.723,27.748,25.511,4.0655,6.0654,8.0388,13.243,12.124,21.4-2.5524-4.8944-5.0523-9.4072-7.5783-13.473-9.2757-15.414-18.979-24.695-26.998-28.103-2.3419-0.99994-4.5523-1.4999-6.5719-1.4999-4.9141-0.01316-8.6507,2.9932-10.335,8.4993-1.5525,4.4865-1.8288,10.604-1.8354,18.472,0,4.7562,0.10526,10.151,0.10526,16.209v4.2694c0.0658,3.5524,0.079,6.9334,0.079,10.144,0,2.5985-0.007,5.0786-0.007,7.4536,0,9.8348,0.15789,17.769,1.8354,23.893,2.2498,9.0852,7.9929,14.164,15.88,14.144,0.2763,0,0.5526-0.007,0.82231-0.0132,12.696-0.17762,27.564-12.755,42.287-36.313-15.545,26.531-32.511,40.155-45.629,40.116zm47.569-38.839c0.007,0.0132,0.007,0.0263,0.007,0.0329-0.59864,1.0065-1.2039,2.0393-1.8288,3.0853,0.62495-1.0526,1.2236-2.0854,1.8222-3.1182zm-0.50654,5.0983c0.58549-0.92756,1.171-1.842,1.7367-2.7432,0.007,0.0132,0,0.0263,0,0.0394-0.32236,0.49996-0.65128,0.99992-0.97363,1.5065-0.26313,0.39471-0.52628,0.80257-0.78284,1.1973zm1.3683-0.69073c0-0.0329,0.0658-0.0592,0.0658-0.0855,0.25655-0.39471,0.49997-0.75653,0.74994-1.1381v0.0132c-0.26314,0.39471-0.52628,0.80916-0.80257,1.2104zm0.92098-0.007c0.0658-0.0723,0.0987-0.13815,0.13816-0.21709-0.0658,0.079-0.079,0.14472-0.13816,0.21709zm0.90125-1.8354c0.007,0,0.007-0.007,0.007-0.0132,0.24998,0.38813,0.49338,0.74995,0.74337,1.1447,0,0.0263,0.0658,0.0526,0.0658,0.079-0.26314-0.40786-0.53943-0.81573-0.80257-1.2104zm1.3946,0.7039c-0.32893-0.50655-0.65785-0.99994-0.97363-1.4999,0.007-0.0132,0-0.0329,0-0.0461,0.57233,0.89467,1.1512,1.8091,1.7367,2.7432-0.25656-0.39472-0.5197-0.80258-0.78284-1.1973zm0.26314-3.8682v-0.0263c0.59863,1.0197,1.1973,2.0525,1.8025,3.1182-0.60522-1.0526-1.217-2.0788-1.8157-3.0919zm44.24,34.991c0.2763,0.007,0.54601,0.0132,0.82888,0.0132,7.8873,0.0197,13.624-5.0589,15.874-14.137,1.6841-6.1312,1.8354-14.058,1.842-23.9v-7.4536c0-3.2037,0-6.585,0.079-10.144-0.007-1.4604-0.007-2.8814-0.007-4.2694,0-6.0522,0.0921-11.453,0.0921-16.203,0-7.8681-0.28288-13.979-1.8288-18.472-1.6841-5.5062-5.4273-8.5061-10.335-8.4993-2.0196,0-4.23,0.49338-6.5719,1.4999-8.0189,3.4142-17.716,12.696-26.992,28.103-2.5261,4.0655-5.0325,8.5849-7.5783,13.473,4.0852-8.1573,8.0518-15.328,12.111-21.387,9.5977-14.789,19.801-23.116,27.754-25.518,1.6709-0.50654,3.2563-0.75652,4.7168-0.75652,5.447,0.01317,9.3086,3.4011,10.835,10.025,0.88153,3.3616,1.1512,7.5392,1.1512,12.545,0,7.1246-0.53285,15.953-0.53285,26.531,0,0.72364,0,1.4604,0.007,2.2038-0.0658,2.638-0.0855,5.2036-0.0855,7.677,0,7.6112,0.22367,14.4,0.22367,20.367,0,6.1312-0.23683,11.388-1.171,15.801-1.8814,10.085-7.322,15.716-15.348,16.242-0.56574,0.0462-1.1381,0.079-1.7104,0.079-13.124,0.0394-30.09-13.578-45.629-40.136,14.729,23.558,29.596,36.129,42.287,36.313zm6.743,9.2359c1.3025,0,2.5722-0.125,3.7958-0.36182,8.4534-1.4341,13.828-8.4335,15.183-19.545,0.49997-3.23,0.65785-6.8022,0.65785-10.736,0-7.9997-0.67758-17.473-0.67758-28.505,0-2.309,0-4.6905,0.10525-7.1376v-1.0591c0-14.157,1.2828-25.492,1.2828-34.241,0-3.2037-0.17103-6.0654-0.65127-8.5979-1.2302-8.2759-5.9272-12.94-12.749-12.92-1.0197,0-2.0788,0.10526-3.1971,0.30919-8.4136,1.5657-19.315,9.164-29.478,23.452-3.8418,5.2628-7.5851,11.427-11.328,18.44,5.3351-10.447,10.736-19.235,16.341-26.162,10.703-13.565,22.15-20.143,30.386-20.729,0.43418-0.03289,0.8552-0.04606,1.2696-0.04606,7.5584,0.02635,12.262,5.1181,13.078,14.736,0.1842,1.592,0.26972,3.2761,0.26972,5.0983,0,9.9205-2.3748,23.432-2.3748,40.826v0.19736c-0.0987,2.4012-0.13157,4.7562-0.13157,7.052,0.007,14.005,1.3881,25.696,1.3881,35.188,0,2.2433-0.079,4.3681-0.26973,6.368-0.80257,11.795-5.5128,19.275-13.598,21.525-1.7564,0.53287-3.6379,0.796-5.6312,0.796-13.394,0.0329-31.721-12.196-46.957-37.346,14.506,22.189,30.63,33.366,43.286,33.399zm7.5721,9.4929c2.8945,0,5.572-0.49997,7.973-1.5065,8.4335-3.2629,12.742-12.072,12.881-24.801,0-0.84205,0.0658-1.717,0.0658-2.6051,0-10.933-2.3617-24.531-2.3617-41.102,0-2.309,0.0658-4.6773,0.14472-7.1048,0.0658-19.966,3.855-35.169,3.855-46.286,0-0.72363,0-1.4341-0.0658-2.1249-0.0987-11.17-5.276-17.815-14.151-18.104-0.21709,0-0.44734-0.0069-0.67758-0.0069-8.6439,0.0069-20.551,5.8351-31.781,18.512-6.7561,7.4597-13.269,17.36-19.459,29.459,17.236-35.774,40.214-52.845,55.516-52.805,1.0986,0,2.1643,0.08552,3.1774,0.26314,7.8812,1.0854,12.163,7.2363,12.196,17.676,0,0.73679,0,1.4867-0.0658,2.263-0.20395,11.894-5.5522,28.518-5.7364,50.49-0.13815,2.4735-0.1842,4.9141-0.1842,7.2891,0,18.591,3.48,33.695,3.6511,45.609,0.0658,0.94729,0.0658,1.8485,0.0658,2.7432-0.007,11.92-3.6248,20.209-11.019,23.906-2.7827,1.5065-6.118,2.2762-9.8348,2.2762-13.887,0.0132-33.13-10.822-48.411-34.044,14.493,20.236,31.405,29.985,44.227,30.005zm8.6904,9.6375c4.8418,0,9.1242-1.1446,12.459-3.3945,6.835-4.2497,9.9664-12.368,9.9534-23.248,0-2.092-0.11842-4.3023-0.34208-6.5982-0.88152-12.683-5.1049-28.287-5.0983-47.279,0-2.4406,0.0658-4.9339,0.22368-7.4796,0.30919-22.439,6.7956-39.596,7.901-52.437,0.23025-1.8749,0.35523-3.6708,0.35523-5.3483,0-9.7163-3.9734-16.176-11.585-18.012-1.6709-0.46049-3.4932-0.69732-5.4207-0.69732-14.052,0.02635-34.241,12.282-50.733,38.175,17.473-29.544,40.984-43.03,56.378-43.01,2.763,0,5.2496,0.4276,7.4076,1.2631,6.5324,2.3025,9.7759,7.9798,9.7889,16.571,0,2.5919-0.29603,5.4404-0.90125,8.526-2.0788,13.42-9.8547,31.274-10.335,54.345-0.19078,2.6248-0.2763,5.2102-0.2763,7.7496,0,19.551,5.0588,35.728,6.6969,48.931,0.58548,3.8024,0.89467,7.361,0.89467,10.637,0,9.5189-2.5656,16.683-8.1834,20.926-3.5261,2.9143-8.4993,4.4471-14.354,4.4471-14.584,0.0132-34.524-9.5648-50.207-30.78,14.723,18.229,32.189,26.709,45.379,26.715zm9.9794,9.6635c7.2562,0,13.367-2.0656,17.282-6.0127,4.9076-4.4405,7.052-11.151,7.052-19.538,0-4.5523-0.63154-9.6114-1.8025-15.104-2.513-13.874-8.4006-30.419-8.3944-50.214,0-2.5919,0.0921-5.2365,0.31578-7.947,0.67099-23.373,9.7821-41.649,13.032-55.93,1.1973-4.4602,1.8091-8.5191,1.8091-12.13,0-7.8215-2.9208-13.545-8.9995-16.335-2.7564-1.4144-6.1904-2.138-10.072-2.138-14.887,0.01317-36.576,10.578-53.983,33.813,18.617-26.794,43.852-38.596,60.562-38.576,4.9997,0,9.2229,1.046,12.276,3.0393,4.9865,2.9011,7.348,7.8215,7.3549,14.551,0,4.4405-1.046,9.6505-3.0656,15.485-4.4668,14.828-15.157,33.695-16.052,57.641-0.2763,2.7893-0.3947,5.5391-0.3947,8.2361,0,20.269,6.8546,37.3,10.282,51.628,1.9604,7.1966,3.059,13.709,3.0524,19.367,0,7.0458-1.6907,12.749-5.493,16.867-3.8221,4.7299-10.736,7.335-19.249,7.3282-15.348,0.007-35.794-8.4205-52.174-27.564,15.17,16.196,32.991,23.531,46.661,23.531zm-36.997-11.275c10.67,9.6834,22.617,15.854,33.406,18.775,5.2365,1.4144,10.204,2.092,14.756,2.092,10.204,0,18.347-3.3813,22.716-9.3284,3.0919-4.0063,4.4536-9.1372,4.4471-15.144,0-6.9204-1.7828-15.019-4.7891-24.005-4.4931-14.907-12.276-32.176-12.269-52.529,0-2.7498,0.13814-5.5522,0.44734-8.4136,1.1315-24.077,13.38-43.254,19.315-58.818,3.1314-7.348,4.8154-13.874,4.822-19.361,0-6.0193-2.0591-10.828-6.4864-13.966-3.5261-2.8748-8.9536-4.3747-15.472-4.3747-15.999,0-38.78,9.0255-57.384,29.465,20.156-23.873,46.714-34.122,64.976-34.109,8.0518-0.0069,14.466,1.9999,17.985,5.5917,3.4669,2.9866,5.0654,7.026,5.072,12.065,0,6.2035-2.4669,13.9-6.9472,22.67-7.4405,16.065-21.551,35.721-22.992,60.305-0.3684,2.9406-0.53944,5.8548-0.53944,8.7035,0.007,20.755,8.9008,38.425,14.486,53.726,4.276,10.71,6.9273,20.269,6.9273,28.136,0,4.8286-0.98677,9.0194-3.1971,12.473-4.0655,6.8153-12.979,10.887-24.695,10.887-3.855,0.007-7.9997-0.43418-12.374-1.3618-13.539-2.8485-29.228-10.486-42.208-23.478zm51.358,29.472c3.5261,0.55259,6.9006,0.82231,10.091,0.82231h0.007c13.756,0,24.051-4.9668,28.044-13.341,1.6052-3.1116,2.3222-6.6838,2.3222-10.624-0.007-9.1181-3.8484-20.249-9.6834-32.702-6.8153-15.762-16.749-33.563-16.742-54.233,0-2.8879,0.19735-5.8351,0.61837-8.835,1.7236-24.525,17.637-44.385,26.86-61.074,6.2035-10.328,9.7759-19.407,9.7821-26.742,0-4.401-1.3026-8.1971-4.1181-11.17-4.2168-4.7234-12.157-7.3679-22.235-7.3748-6.7693,0-14.506,1.1973-22.749,3.8024-12.657,3.98-26.537,11.328-38.767,22.393,15.144-14.821,33.748-23.906,50.016-27.985,7.3021-1.8354,14.137-2.684,20.236-2.684,12.078-0.0069,21.183,3.3616,25.176,8.9207,2.0064,2.6051,2.9472,5.6772,2.9472,9.2167,0,7.9531-4.8023,18.229-12.979,29.952-11.045,17.117-29.15,37.313-31.268,62.272-0.49339,3.0722-0.71706,6.1114-0.71706,9.1044,0,21.011,11.216,39.109,19.315,55.206,7.618,14.052,12.854,26.603,12.848,36.517,0,2.9472-0.4539,5.6641-1.4473,8.1114-3.3353,9.2825-14.381,15.111-30.09,15.111-2.3354,0-4.776-0.13156-7.309-0.3947-15.302-1.592-34.004-8.3876-49.523-21.307,12.762,9.5847,27.038,15.124,39.365,17.038z"
     fill="url(#linearGradient3452)"
     id="path51" /></svg>