<?xml version="1.0" encoding="UTF-8" standalone="no"?>
<svg
   xmlns:dc="http://purl.org/dc/elements/1.1/"
   xmlns:cc="http://creativecommons.org/ns#"
   xmlns:rdf="http://www.w3.org/1999/02/22-rdf-syntax-ns#"
   xmlns:svg="http://www.w3.org/2000/svg"
   xmlns="http://www.w3.org/2000/svg"
   xmlns:sodipodi="http://sodipodi.sourceforge.net/DTD/sodipodi-0.dtd"
   xmlns:inkscape="http://www.inkscape.org/namespaces/inkscape"
   viewBox="0 0 512 512"
   id="svg2"
   version="1.1"
   inkscape:version="0.48.4 r9939"
   width="100%"
   height="100%"
   sodipodi:docname="tracktunes-logo.svg">
  <metadata
     id="metadata39">
    <rdf:RDF>
      <cc:Work
         rdf:about="">
        <dc:format>image/svg+xml</dc:format>
        <dc:type
           rdf:resource="http://purl.org/dc/dcmitype/StillImage" />
      </cc:Work>
    </rdf:RDF>
  </metadata>
  <sodipodi:namedview
     pagecolor="#ffffff"
     bordercolor="#666666"
     borderopacity="1"
     objecttolerance="10"
     gridtolerance="10"
     guidetolerance="10"
     inkscape:pageopacity="0"
     inkscape:pageshadow="2"
     inkscape:window-width="640"
     inkscape:window-height="480"
     id="namedview37"
     showgrid="false"
     showborder="true"
     inkscape:showpageshadow="false"
     inkscape:zoom="0.4609375"
     inkscape:cx="256"
     inkscape:cy="256"
     inkscape:window-x="0"
     inkscape:window-y="0"
     inkscape:window-maximized="0"
     inkscape:current-layer="svg2" />
  <defs
     id="defs4">
    <linearGradient
       id="linearGradient3698"
       y2="466.14"
       gradientUnits="userSpaceOnUse"
       x2="1460.5"
       gradientTransform="matrix(9.6 0 0 9.6 -13517 -4219)"
       y1="466.14"
       x1="1409.3">
      <stop
         stop-color="#b00"
         offset="0"
         id="stop7" />
      <stop
         stop-color="#c00900"
         offset=".0379"
         id="stop9" />
      <stop
         stop-color="#cf2100"
         offset=".0998"
         id="stop11" />
      <stop
         stop-color="#e64900"
         offset=".17740"
         id="stop13" />
      <stop
         stop-color="#ff7200"
         offset=".2473"
         id="stop15" />
      <stop
         stop-color="#ffa000"
         offset=".31980"
         id="stop17" />
      <stop
         stop-color="#ffd000"
         offset="0.407"
         id="stop19" />
      <stop
         stop-color="#ffef00"
         offset=".47350"
         id="stop21" />
      <stop
         stop-color="#fffa00"
         offset="0.511"
         id="stop23" />
      <stop
         stop-color="#ff7200"
         offset=".75820"
         id="stop25" />
      <stop
         stop-color="#f15a00"
         offset=".79880"
         id="stop27" />
      <stop
         stop-color="#d42a00"
         offset=".89060"
         id="stop29" />
      <stop
         stop-color="#c20b00"
         offset=".96060"
         id="stop31" />
      <stop
         stop-color="#b00"
         offset="1"
         id="stop33" />
    </linearGradient>
  </defs>
  <path
     fill="url(#linearGradient3698)"
     d="m425.8 258.9c0-4.3872 0.384-8.8224 1.2-13.363 3.6-36.019 33.024-65.664 52.253-91.382 15.331-19.21 24.864-36.154 24.883-49.555 0-4.368-1.0272-8.3712-3.216-11.885-5.9232-10.387-21.802-16.464-43.171-16.474-7.9104 0-16.589 0.8352-25.795 2.6208-32.602 6.3072-72.211 24.768-98.909 58.166-3.3312 3.8016-6.4992 7.7952-9.4752 12.019-2.7648 3.5616-5.3952 7.2864-7.8912 11.194-19.027 27.754-30.883 53.626-42 75.322-5.4528 11.069-10.723 21.053-15.802 29.914-4.9248-8.6208-10.022-18.307-15.283-29.002-11.126-21.686-22.982-47.568-42-75.312-2.496-3.8976-5.136-7.6224-7.9008-11.184-2.9856-4.224-6.1536-8.2368-9.4752-12.029-26.688-33.398-66.298-51.85-98.899-58.157-9.216-1.7856-17.885-2.6208-25.805-2.6208-21.37 0.0096-37.238 6.0864-43.162 16.474-2.1888 3.5136-3.2256 7.5168-3.216 11.875 0 13.402 9.5328 30.346 24.883 49.546 19.21 25.728 48.653 55.373 52.243 91.382 0.816 4.5312 1.1904 8.9952 1.1904 13.373 0.0096 30.259-18 56.707-31.92 80.707-14.112 22.829-24.432 43.334-24.451 59.712 0 3.1872 0.384 6.2016 1.2192 9.024 4.0896 16.205 22.493 26.285 49.066 26.285 2.0832 0 4.2336-0.0576 6.4224-0.192 29.165-1.6416 67.286-15.072 94.445-43.402 3.2832-3.072 6.4416-6.3552 9.4368-9.84 2.0256-2.1216 4.0128-4.32 5.9232-6.624 20.074-22.886 33.408-43.91 44.938-61.21 4.5792-7.056 8.8512-13.478 12.893-19.286 3.8496 5.5776 7.9008 11.674 12.25 18.365 11.539 17.299 24.864 38.333 44.938 61.219 1.9104 2.2944 3.888 4.5024 5.9232 6.6144 3.0048 3.4848 6.1536 6.7776 9.4368 9.8496 27.158 28.33 65.29 41.77 94.445 43.402 2.1984 0.1248 4.3488 0.192 6.4224 0.192 26.573 0 44.966-10.08 49.066-26.285 0.8352-2.8224 1.2192-5.856 1.2192-9.024-0.01-16.368-10.32-36.883-24.442-59.712-13.939-24.01-31.958-50.448-31.949-80.717zm-159.93 19.382c1.824-3.4752 3.6192-6.816 5.4048-10.032 12.989-24.442 25.114-41.299 35.645-49.949 5.7216-4.7808 10.963-7.0752 15.178-7.056 3.4656 0.01 6.2688 1.4976 8.3136 4.5408 4.8288 6.7872 5.5392 21.514 5.7696 44.419-0.1344 22.915-0.7488 38.995-5.6832 48.326-3.2736 6.4896-8.544 9.7824-15.197 9.792-2.88 0.01-6.0096-0.6144-9.3696-1.9104-11.098-4.2144-24.346-15.725-37.459-34.416-0.864-1.2-1.7376-2.4384-2.6016-3.7152zm-1.344 2.5248c2.8032 4.2528 5.5776 8.2176 8.3712 11.866 13.526 18.134 27.418 28.694 39.072 31.795 2.448 0.6528 4.8 0.9696 7.0272 0.9696 8.4192 0.0192 15.101-4.7232 18.605-13.478 4.752-11.136 4.6848-28.598 4.9344-52.877-0.2976-24.278-0.2208-40.358-5.04-49.094-2.4096-4.6752-6.384-7.1712-11.213-7.1616-4.1376 0-8.8608 1.7664-13.93 5.2704-11.05 7.5648-23.77 23.424-36.758 47.318-1.6416 2.8896-3.2832 5.9232-4.9344 9.0336 3.8304-7.5264 7.5264-14.467 11.232-20.774 13.085-23.117 26.429-37.699 37.498-43.805 4.1472-2.3136 7.968-3.4176 11.29-3.4176 5.5008 0.01 9.7152 2.976 12.144 8.928 4.272 9.6288 3.5616 27.053 3.8208 52.598-0.3456 25.555 0.3552 44.314-3.8688 56.429-3.4272 10.608-10.464 16.118-19.891 16.147-1.296 0-2.6208-0.096-3.9936-0.3168-11.424-1.728-25.786-10.982-39.638-28.272-4.9632-6.0288-9.8592-13.075-14.813-21.005 0-0.0384 0.096-0.096 0.096-0.1536zm-4.4256 8.4576c0.096 0.1056 0.1344 0.2112 0.2016 0.3168-0.096-0.096-0.1344-0.192-0.2016-0.2976v-0.0192zm-3.9744 0.9312c-0.096 0.1056-0.1344 0.2016-0.192 0.3072 0.096-0.1056 0.1344-0.2112 0.192-0.3072zm-5.76-10.982c-0.864 1.2672-1.7376 2.5056-2.6112 3.7152-13.114 18.682-26.362 30.192-37.459 34.406-3.3408 1.2864-6.48 1.9104-9.36 1.9104-6.6528-0.01-11.914-3.2928-15.197-9.7824-4.944-9.3408-5.5584-25.421-5.6928-48.336 0.24-22.906 0.9504-37.642 5.7792-44.419 2.0448-3.0432 4.8288-4.5312 8.304-4.5312 4.2144-0.01 9.4464 2.2752 15.178 7.056 10.531 8.6496 22.666 25.507 35.654 49.939 1.776 3.2064 3.5616 6.5568 5.4048 10.042zm-9.7344-22.877c-12.989-23.894-25.709-39.744-36.758-47.309-5.0592-3.5232-9.8016-5.2704-13.93-5.2704-4.8288-0.01-8.8032 2.4672-11.213 7.1616-4.8192 8.736-4.752 24.806-5.0304 49.094 0.2496 24.269 0.1728 41.75 4.9248 52.867 3.504 8.7648 10.186 13.507 18.614 13.478 2.2272 0 4.5792-0.3072 7.0176-0.9696 11.654-3.1008 25.555-13.661 39.082-31.786 2.7936-3.6576 5.568-7.632 8.3616-11.885 0 0.048 0 0.1056 0.096 0.1632-4.9632 7.9296-9.8496 14.976-14.803 21.005-13.853 17.29-28.214 26.534-39.638 28.272-1.3728 0.2016-2.7072 0.3072-3.9936 0.3072-9.4368-0.0192-16.454-5.5296-19.901-16.147-4.2048-12.106-3.5136-30.864-3.8592-56.419 0.2592-25.555-0.4512-42.979 3.8208-52.598 2.4288-5.952 6.6336-8.9184 12.144-8.9376 3.312 0 7.1328 1.104 11.28 3.4176 11.069 6.1056 24.403 20.688 37.498 43.805 3.7056 6.2976 7.4016 13.238 11.232 20.765-1.6512-3.0912-3.2928-6.1248-4.9248-9.0144zm-134.12 170.95c-3.696 0.3936-7.2576 0.5856-10.675 0.5856-22.915 0-39.034-8.5056-43.91-22.042-1.44-3.6-2.1024-7.5552-2.1024-11.846-0.0096-14.458 7.6224-32.784 18.749-53.29 11.818-23.491 28.166-49.901 28.186-80.563 0-4.3584-0.3264-8.8032-1.0464-13.286-3.1008-36.413-29.51-65.885-45.638-90.864-11.923-17.107-18.96-32.112-18.941-43.718 0-5.1648 1.3728-9.648 4.3104-13.45 5.808-8.1024 19.104-13.018 36.73-13.008 8.8896 0 18.864 1.2384 29.52 3.9168 23.75 5.9616 50.899 19.21 72.998 40.838-17.856-16.147-38.093-26.87-56.582-32.678-12.01-3.792-23.299-5.5488-33.178-5.5488-14.717 0.0096-26.304 3.8688-32.448 10.771-4.1088 4.3392-6.0192 9.8688-6.0192 16.291 0 10.714 5.232 23.962 14.285 39.034 13.459 24.365 36.672 53.338 39.197 89.126 0.6048 4.368 0.9024 8.6688 0.9024 12.893 0.01 30.154-14.477 56.131-24.442 79.133-8.5056 18.173-14.131 34.416-14.141 47.722 0 5.7504 1.0656 10.963 3.3984 15.504 5.8176 12.221 20.842 19.478 40.906 19.478 4.6464 0 9.5712-0.384 14.717-1.2 18-2.7936 38.832-10.877 57.485-24.874-22.656 18.835-49.949 28.752-72.278 31.075zm28.166-14.957c-6.384 1.3536-12.442 1.9968-18.058 1.9968-17.107 0-30.115-5.952-36.058-15.898-3.2064-5.04-4.656-11.146-4.656-18.202 0-11.472 3.8592-25.43 10.118-41.05 8.1408-22.33 21.12-48.115 21.12-78.403 0-4.1664-0.2304-8.4192-0.768-12.701-2.0928-35.866-22.694-64.55-33.562-88.003-6.5376-12.797-10.138-24.029-10.138-33.082 0-7.3632 2.3424-13.248 7.4016-17.606 5.1456-5.2512 14.496-8.1696 26.246-8.16 26.659-0.01 65.405 14.938 94.81 49.786-27.139-29.837-60.394-42.998-83.731-43.008-9.5136 0-17.434 2.1888-22.589 6.4032-6.4512 4.5696-9.4752 11.578-9.456 20.362 0 8.0064 2.4672 17.53 7.0368 28.243 8.6496 22.723 26.525 50.717 28.176 85.853 0.4512 4.176 0.6432 8.256 0.6432 12.269 0.01 29.702-11.338 54.912-17.894 76.656-4.3872 13.123-6.9984 24.941-6.9984 35.04 0 8.7744 1.968 16.262 6.4896 22.09 6.3648 8.6784 18.259 13.613 33.149 13.613 6.6336 0 13.891-0.9792 21.533-3.0528 15.744-4.2528 33.187-13.267 48.739-27.398-18.912 18.931-41.808 30.096-61.555 34.253zm-0.4704-11.914c-12.432 0-22.522-3.7824-28.09-10.694-5.5584-6.0096-8.0256-14.342-8.0256-24.614 0-8.2656 1.5936-17.77 4.4544-28.262 5.0208-20.928 15.005-45.773 15.005-75.341 0-3.9456-0.1728-7.968-0.5664-12.038-1.3056-34.944-16.906-62.477-23.424-84.106-2.9472-8.5248-4.464-16.118-4.464-22.598 0.0096-9.8112 3.4464-17.002 10.733-21.235 4.4448-2.8992 10.608-4.4352 17.904-4.4352 24.394-0.0192 61.21 17.194 88.378 56.304-25.402-33.907-57.053-49.325-78.778-49.344-5.6736 0-10.675 1.056-14.707 3.12-8.8608 4.0704-13.152 12.422-13.123 23.837 0 5.2608 0.8928 11.203 2.64 17.702 4.7424 20.842 18.038 47.501 19.008 81.619 0.336 3.936 0.4704 7.8048 0.4704 11.597 0.01 28.877-8.592 53.011-12.25 73.267-1.7088 8.0064-2.6304 15.398-2.6304 22.042 0 12.24 3.1296 22.042 10.282 28.522 5.7024 5.76 14.621 8.784 25.21 8.784 19.968-0.01 45.965-10.723 68.083-34.33-23.875 27.917-53.722 40.224-76.109 40.205zm15.59-14.064c-8.5344 0-15.802-2.2464-20.947-6.4992-8.1984-6.2016-11.952-16.646-11.952-30.547 0-4.7808 0.4512-9.9648 1.3056-15.533 2.3904-19.267 9.7728-42.864 9.7728-71.405 0-3.696-0.1344-7.4688-0.4128-11.299-0.7104-33.677-12.048-59.722-15.082-79.315-0.8928-4.512-1.3248-8.6592-1.3248-12.442 0-12.538 4.7616-20.822 14.294-24.173 3.1392-1.2192 6.7776-1.8624 10.8-1.8624 22.445-0.0192 56.784 19.661 82.272 62.774-24.067-37.795-53.53-55.67-74.035-55.699-2.8224 0-5.472 0.3456-7.9104 1.008-11.126 2.6784-16.934 12.106-16.906 26.275 0 2.4672 0.1728 5.088 0.5088 7.8144 1.6032 18.739 11.078 43.786 11.53 76.512 0.2208 3.7248 0.336 7.3632 0.336 10.925 0 27.715-6.1728 50.486-7.4496 68.995-0.3264 3.3504-0.4992 6.576-0.4992 9.6288-0.01 15.878 4.56 27.725 14.525 33.936 4.8768 3.2736 11.126 4.944 18.182 4.944 19.258-0.01 44.736-12.384 66.24-38.976-22.867 30.97-51.974 44.947-73.248 44.938zm13.594-14.122c-5.4144 0-10.272-1.1136-14.342-3.3024-10.79-5.3952-16.08-17.51-16.08-34.896 0-1.296 0-2.6208 0.096-3.9936 0.2496-17.395 5.3376-39.427 5.3376-66.557 0-3.4752-0.096-7.0176-0.2688-10.646-0.2688-32.054-8.064-56.323-8.3712-73.68-0.096-1.1232-0.096-2.2272-0.096-3.2928 0-15.235 6.288-24.211 17.779-25.795 1.4976-0.2592 3.0432-0.384 4.6464-0.384 22.33-0.0672 55.872 24.854 81.014 77.059-9.0432-17.664-18.538-32.102-28.397-42.998-16.387-18.509-33.773-26.995-46.378-27.014-0.3456 0-0.6624 0-0.9888 0.01-12.95 0.4224-20.515 10.128-20.64 26.419-0.096 1.008-0.096 2.0448-0.096 3.0912 0.01 16.224 5.5488 38.41 5.6256 67.546 0.1632 3.5424 0.2208 6.9984 0.2208 10.378 0 24.182-3.4464 44.026-3.4464 59.971 0 1.296 0.01 2.5728 0.096 3.8112 0.2016 18.566 6.4896 31.43 18.787 36.192 3.5136 1.4496 7.4208 2.1888 11.645 2.1888 18.701-0.0192 43.382-14.246 64.522-43.776-22.282 33.898-50.362 49.709-70.637 49.67zm11.846-13.968c-2.8992 0-5.6448-0.3936-8.2272-1.1616-11.779-3.2928-18.653-14.198-19.824-31.402-0.2688-2.928-0.3936-6.0192-0.3936-9.3024 0-13.853 2.016-30.912 2.0256-51.341 0-3.3504 0-6.7968-0.192-10.291v-0.288c0-25.373-3.4848-45.091-3.4656-59.578 0-2.6496 0.1152-5.136 0.384-7.44 1.1904-14.045 8.064-21.475 19.085-21.514 0.6048 0 1.2192 0.0192 1.8528 0.0768 12.01 0.864 28.723 10.445 44.342 30.25 8.1696 10.099 16.061 22.915 23.837 38.179-5.4624-10.234-10.915-19.238-16.522-26.909-14.842-20.851-30.749-31.939-43.027-34.234-1.632-0.2976-3.1872-0.4416-4.6656-0.4416-9.9648-0.0288-16.829 6.7872-18.614 18.854-0.7008 3.6864-0.9504 7.8624-0.9504 12.547 0 12.768 1.872 29.309 1.872 49.958 0 0.5184-0.01 1.008-0.01 1.5552 0.1152 3.5712 0.1536 7.0368 0.1536 10.406 0 16.099-0.9888 29.933-0.9888 41.597 0 5.7408 0.24 10.963 0.9504 15.658 1.9968 16.214 9.8304 26.429 22.166 28.522 1.7856 0.3552 3.6384 0.528 5.5296 0.528 18.461-0.0384 42-16.358 63.197-48.739-22.234 36.691-48.96 54.547-68.515 54.509zm10.282-13.68c-0.8352 0-1.6704-0.0384-2.496-0.1248-11.712-0.768-19.651-8.9856-22.397-23.693-1.3632-6.4416-1.6992-14.122-1.6992-23.05 0-8.7168 0.3168-18.605 0.3168-29.731 0-3.6192 0-7.3536-0.1248-11.203v-3.2064c0-15.437-0.7776-28.31-0.7776-38.717 0-7.3152 0.384-13.402 1.68-18.307 2.2368-9.6672 7.8624-14.602 15.811-14.621 2.1312 0 4.4352 0.3648 6.8832 1.0944 11.597 3.504 26.496 15.648 40.493 37.229 5.9328 8.8512 11.731 19.325 17.693 31.229-3.7248-7.1424-7.3728-13.728-11.059-19.661-13.536-22.493-27.696-36.038-39.398-41.011-3.4176-1.4592-6.6432-2.1888-9.5904-2.1888-7.1712-0.0192-12.624 4.368-15.082 12.403-2.2656 6.5472-2.6688 15.475-2.6784 26.957 0 6.9408 0.1536 14.813 0.1536 23.654v6.2304c0.096 5.184 0.1152 10.118 0.1152 14.803 0 3.792-0.01 7.4112-0.01 10.877 0 14.352 0.2304 25.93 2.6784 34.867 3.2832 13.258 11.664 20.669 23.174 20.64 0.4032 0 0.8064-0.01 1.2-0.0192 18.528-0.2592 40.224-18.614 61.709-52.992-22.685 38.717-47.443 58.598-66.586 58.541zm69.418-56.678c0.01 0.0192 0.01 0.0384 0.01 0.048-0.8736 1.4688-1.7568 2.976-2.6688 4.5024 0.912-1.536 1.7856-3.0432 2.6592-4.5504zm-0.7392 7.44c0.8544-1.3536 1.7088-2.688 2.5344-4.0032 0.01 0.0192 0 0.0384 0 0.0576-0.4704 0.7296-0.9504 1.4592-1.4208 2.1984-0.384 0.576-0.768 1.1712-1.1424 1.7472zm1.9968-1.008c0-0.048 0.096-0.0864 0.096-0.1248 0.3744-0.576 0.7296-1.104 1.0944-1.6608v0.0192c-0.384 0.576-0.768 1.1808-1.1712 1.7664zm1.344-0.01c0.096-0.1056 0.144-0.2016 0.2016-0.3168-0.096 0.1152-0.1152 0.2112-0.2016 0.3168zm1.3152-2.6784c0.01 0 0.01-0.01 0.01-0.0192 0.3648 0.5664 0.72 1.0944 1.0848 1.6704 0 0.0384 0.096 0.0768 0.096 0.1152-0.384-0.5952-0.7872-1.1904-1.1712-1.7664zm2.0352 1.0272c-0.48-0.7392-0.96-1.4592-1.4208-2.1888 0.01-0.0192 0-0.048 0-0.0672 0.8352 1.3056 1.68 2.64 2.5344 4.0032-0.3744-0.576-0.7584-1.1712-1.1424-1.7472zm0.384-5.6448v-0.0384c0.8736 1.488 1.7472 2.9952 2.6304 4.5504-0.8832-1.536-1.776-3.0336-2.6496-4.512zm64.56 51.062c0.4032 0.01 0.7968 0.0192 1.2096 0.0192 11.51 0.0288 19.882-7.3824 23.165-20.63 2.4576-8.9472 2.6784-20.515 2.688-34.877v-10.877c0-4.6752 0-9.6096 0.1152-14.803-0.01-2.1312-0.01-4.2048-0.01-6.2304 0-8.832 0.1344-16.714 0.1344-23.645 0-11.482-0.4128-20.4-2.6688-26.957-2.4576-8.0352-7.92-12.413-15.082-12.403-2.9472 0-6.1728 0.72-9.5904 2.1888-11.702 4.9824-25.853 18.528-39.389 41.011-3.6864 5.9328-7.344 12.528-11.059 19.661 5.9616-11.904 11.75-22.368 17.674-31.21 14.006-21.581 28.896-33.734 40.502-37.238 2.4384-0.7392 4.752-1.104 6.8832-1.104 7.9488 0.0192 13.584 4.9632 15.811 14.63 1.2864 4.9056 1.68 11.002 1.68 18.307 0 10.397-0.7776 23.28-0.7776 38.717 0 1.056 0 2.1312 0.01 3.216-0.096 3.8496-0.1248 7.5936-0.1248 11.203 0 11.107 0.3264 21.014 0.3264 29.722 0 8.9472-0.3456 16.618-1.7088 23.059-2.7456 14.717-10.685 22.934-22.397 23.702-0.8256 0.0672-1.6608 0.1152-2.496 0.1152-19.152 0.0576-43.91-19.814-66.586-58.57 21.494 34.378 43.19 52.723 61.709 52.992zm9.84 13.478c1.9008 0 3.7536-0.1824 5.5392-0.528 12.336-2.0928 20.179-12.307 22.157-28.522 0.7296-4.7136 0.96-9.9264 0.96-15.667 0-11.674-0.9888-25.498-0.9888-41.597 0-3.3696 0-6.8448 0.1536-10.416v-1.5456c0-20.659 1.872-37.2 1.872-49.968 0-4.6752-0.2496-8.8512-0.9504-12.547-1.7952-12.077-8.6496-18.883-18.605-18.854-1.488 0-3.0336 0.1536-4.6656 0.4512-12.278 2.2848-28.186 13.373-43.018 34.224-5.6064 7.68-11.069 16.675-16.531 26.909 7.7856-15.245 15.667-28.07 23.846-38.179 15.619-19.795 32.323-29.395 44.342-30.25 0.6336-0.048 1.248-0.0672 1.8528-0.0672 11.03 0.0384 17.894 7.4688 19.085 21.504 0.2688 2.3232 0.3936 4.7808 0.3936 7.44 0 14.477-3.4656 34.195-3.4656 59.578v0.288c-0.144 3.504-0.192 6.9408-0.192 10.291 0.01 20.438 2.0256 37.498 2.0256 51.35 0 3.2736-0.1152 6.3744-0.3936 9.2928-1.1712 17.213-8.0448 28.128-19.843 31.411-2.5632 0.7776-5.3088 1.1616-8.2176 1.1616-19.546 0.048-46.291-17.798-68.525-54.499 21.168 32.381 44.698 48.691 63.168 48.739zm11.05 13.853c4.224 0 8.1312-0.7296 11.635-2.1984 12.307-4.7616 18.595-17.616 18.797-36.192 0-1.2288 0.096-2.5056 0.096-3.8016 0-15.955-3.4464-35.798-3.4464-59.981 0-3.3696 0.096-6.8256 0.2112-10.368 0.096-29.136 5.6256-51.322 5.6256-67.546 0-1.056 0-2.0928-0.096-3.1008-0.144-16.301-7.6992-25.997-20.65-26.419-0.3168 0-0.6528-0.01-0.9888-0.01-12.614 0.01-29.99 8.5152-46.378 27.014-9.8592 10.886-19.363 25.334-28.397 42.989 25.152-52.205 58.685-77.117 81.014-77.059 1.6032 0 3.1584 0.1248 4.6368 0.384 11.501 1.584 17.75 10.56 17.798 25.795 0 1.0752 0 2.1696-0.096 3.3024-0.2976 17.357-8.1024 41.616-8.3712 73.68-0.2016 3.6096-0.2688 7.1712-0.2688 10.637 0 27.13 5.0784 49.171 5.328 66.557 0.096 1.3824 0.096 2.6976 0.096 4.0032-0.01 17.395-5.2896 29.491-16.08 34.886-4.0608 2.1984-8.928 3.3216-14.352 3.3216-20.266 0.0192-48.346-15.792-70.646-49.68 21.149 29.53 45.83 43.757 64.541 43.786zm12.682 14.064c7.0656 0 13.315-1.6704 18.182-4.9536 9.9744-6.2016 14.544-18.048 14.525-33.926 0-3.0528-0.1728-6.2784-0.4992-9.6288-1.2864-18.509-7.4496-41.28-7.44-68.995 0-3.5616 0.096-7.2 0.3264-10.915 0.4512-32.746 9.9168-57.782 11.53-76.522 0.336-2.736 0.5184-5.3568 0.5184-7.8048 0-14.179-5.7984-23.606-16.906-26.285-2.4384-0.672-5.0976-1.0176-7.9104-1.0176-20.506 0.0384-49.968 17.923-74.035 55.709 25.498-43.114 59.808-62.794 82.272-62.765 4.032 0 7.6608 0.624 10.81 1.8432 9.5328 3.36 14.266 11.645 14.285 24.182 0 3.7824-0.432 7.9392-1.3152 12.442-3.0336 19.584-14.381 45.638-15.082 79.306-0.2784 3.8304-0.4032 7.6032-0.4032 11.309 0 28.531 7.3824 52.138 9.7728 71.405 0.8544 5.5488 1.3056 10.742 1.3056 15.523 0 13.891-3.744 24.346-11.942 30.538-5.1456 4.2528-12.403 6.4896-20.947 6.4896-21.283 0.0192-50.381-13.958-73.267-44.918 21.485 26.602 46.973 38.976 66.221 38.986zm14.563 14.102c10.589 0 19.507-3.0144 25.219-8.7744 7.1616-6.48 10.291-16.272 10.291-28.512 0-6.6432-0.9216-14.026-2.6304-22.042-3.6672-20.246-12.259-44.39-12.25-73.277 0-3.7824 0.1344-7.6416 0.4608-11.597 0.9792-34.109 14.275-60.778 19.018-81.619 1.7472-6.5088 2.64-12.432 2.64-17.702 0-11.414-4.2624-19.766-13.133-23.837-4.0224-2.064-9.0336-3.12-14.698-3.12-21.725 0.0192-53.376 15.437-78.778 49.344 27.168-39.101 63.994-56.323 88.378-56.294 7.296 0 13.459 1.5264 17.914 4.4352 7.2768 4.2336 10.723 11.414 10.733 21.235 0 6.48-1.5264 14.083-4.4736 22.598-6.5184 21.638-22.118 49.171-23.424 84.115-0.4032 4.0704-0.576 8.0832-0.576 12.019 0 29.578 10.003 54.432 15.005 75.341 2.8608 10.502 4.464 20.006 4.4544 28.262 0 10.282-2.4672 18.605-8.016 24.614-5.5776 6.9024-15.667 10.704-28.09 10.694-22.397 0.01-52.234-12.288-76.138-40.224 22.138 23.635 48.144 34.339 68.093 34.339zm-53.99-16.454c15.571 14.131 33.005 23.136 48.749 27.398 7.6416 2.064 14.89 3.0528 21.533 3.0528 14.89 0 26.774-4.9344 33.149-13.613 4.512-5.8464 6.4992-13.334 6.4896-22.099 0-10.099-2.6016-21.917-6.9888-35.03-6.5568-21.754-17.914-46.954-17.904-76.656 0-4.0128 0.2016-8.1024 0.6528-12.278 1.6512-35.136 19.526-63.12 28.186-85.834 4.5696-10.723 7.0272-20.246 7.0368-28.253 0-8.784-3.0048-15.802-9.4656-20.381-5.1456-4.1952-13.066-6.384-22.579-6.384-23.347 0-56.592 13.171-83.741 42.998 29.414-34.838 68.17-49.795 94.819-49.776 11.75-0.01 21.11 2.9184 26.246 8.16 5.0592 4.3584 7.392 10.253 7.4016 17.606 0 9.0528-3.6 20.285-10.138 33.082-10.858 23.443-31.45 52.128-33.552 88.003-0.5376 4.2912-0.7872 8.544-0.7872 12.701 0.01 30.288 12.989 56.074 21.139 78.403 6.24 15.629 10.109 29.578 10.109 41.059 0 7.0464-1.44 13.162-4.6656 18.202-5.9328 9.9456-18.941 15.888-36.038 15.888-5.6256 0.01-11.674-0.6336-18.058-1.9872-19.757-4.1568-42.653-15.302-61.594-34.262zm74.947 43.008c5.1456 0.8064 10.07 1.2 14.726 1.2h0.01c20.074 0 35.098-7.248 40.925-19.469 2.3424-4.5408 3.3888-9.7536 3.3888-15.504-0.01-13.306-5.616-29.549-14.131-47.722-9.9456-23.002-24.442-48.979-24.432-79.142 0-4.2144 0.288-8.5152 0.9024-12.893 2.5152-35.789 25.738-64.771 39.197-89.126 9.0528-15.072 14.266-28.32 14.275-39.024 0-6.4224-1.9008-11.962-6.0096-16.301-6.1536-6.8928-17.741-10.752-32.448-10.762-9.8784 0-21.168 1.7472-33.197 5.5488-18.47 5.808-38.726 16.531-56.573 32.678 22.099-21.629 49.248-34.886 72.989-40.838 10.656-2.6784 20.63-3.9168 29.53-3.9168 17.626-0.0096 30.912 4.9056 36.739 13.018 2.928 3.8016 4.3008 8.2848 4.3008 13.45 0 11.606-7.008 26.602-18.941 43.709-16.118 24.979-42.538 54.451-45.629 90.874-0.72 4.4832-1.0464 8.9184-1.0464 13.286 0 30.662 16.368 57.072 28.186 80.563 11.117 20.506 18.758 38.822 18.749 53.29 0 4.3008-0.6624 8.2656-2.112 11.837-4.8672 13.546-20.986 22.051-43.91 22.051-3.408 0-6.9696-0.192-10.666-0.576-22.33-2.3232-49.622-12.24-72.269-31.094 18.624 13.987 39.456 22.07 57.446 24.864z"
     id="path35" />
</svg>
